{
    "asset" : {
        "generator" : "Khronos glTF Blender I/O v1.7.33",
        "version" : "2.0"
    },
    "scene" : 0,
    "scenes" : [
        {
            "name" : "Scene",
            "nodes" : [
                3
            ]
        }
    ],
    "nodes" : [
        {
            "mesh" : 0,
            "name" : "Base"
        },
        {
            "mesh" : 1,
            "name" : "Head",
            "rotation" : [
                0,
                0.13052619993686676,
                0,
                0.9914448857307434
            ],
            "translation" : [
                -0.00027751660672947764,
                -0.00019834452541545033,
                -135.408203125
            ]
        },
        {
            "mesh" : 2,
            "name" : "Metal",
            "translation" : [
                -0.00027751660672947764,
                -0.00019834452541545033,
                -73.447265625
            ]
        },
        {
            "children" : [
                0,
                1,
                2
            ],
            "name" : "Rabbit",
            "rotation" : [
                0.7071068286895752,
                0,
                0,
                0.7071067094802856
            ],
            "scale" : [
                0.10000000149011612,
                0.10000000149011612,
                0.10000000149011612
            ]
        }
    ],
    "animations" : [
        {
            "channels" : [
                {
                    "sampler" : 0,
                    "target" : {
                        "node" : 2,
                        "path" : "scale"
                    }
                }
            ],
            "name" : "BezierCurve.001Action",
            "samplers" : [
                {
                    "input" : 24,
                    "interpolation" : "LINEAR",
                    "output" : 25
                }
            ]
        },
        {
            "channels" : [
                {
                    "sampler" : 0,
                    "target" : {
                        "node" : 1,
                        "path" : "rotation"
                    }
                }
            ],
            "name" : "Cylinder.015Action",
            "samplers" : [
                {
                    "input" : 24,
                    "interpolation" : "LINEAR",
                    "output" : 26
                }
            ]
        }
    ],
    "materials" : [
        {
            "doubleSided" : true,
            "name" : "Rabbit Color",
            "pbrMetallicRoughness" : {
                "baseColorFactor" : [
                    1,
                    0.296138197183609,
                    0,
                    1
                ],
                "metallicFactor" : 0,
                "roughnessFactor" : 0.4000000059604645
            }
        },
        {
            "doubleSided" : true,
            "name" : "Olive_bottle",
            "pbrMetallicRoughness" : {
                "baseColorFactor" : [
                    0,
                    0,
                    0,
                    1
                ],
                "metallicFactor" : 0,
                "roughnessFactor" : 0.5527864098548889
            }
        },
        {
            "alphaMode" : "BLEND",
            "doubleSided" : true,
            "name" : "Images",
            "pbrMetallicRoughness" : {
                "baseColorTexture" : {
                    "index" : 0
                },
                "metallicFactor" : 0,
                "roughnessFactor" : 0.5
            }
        },
        {
            "doubleSided" : true,
            "name" : "Metal",
            "pbrMetallicRoughness" : {
                "baseColorFactor" : [
                    0.800000011920929,
                    0.800000011920929,
                    0.800000011920929,
                    1
                ],
                "metallicFactor" : 0,
                "roughnessFactor" : 0.5
            }
        },
        {
            "doubleSided" : true,
            "name" : "Metal.004",
            "pbrMetallicRoughness" : {
                "metallicFactor" : 0.550561785697937,
                "roughnessFactor" : 0.5
            }
        }
    ],
    "meshes" : [
        {
            "name" : "Cube.024",
            "primitives" : [
                {
                    "attributes" : {
                        "POSITION" : 0,
                        "NORMAL" : 1,
                        "TEXCOORD_0" : 2
                    },
                    "indices" : 3,
                    "material" : 0
                },
                {
                    "attributes" : {
                        "POSITION" : 4,
                        "NORMAL" : 5,
                        "TEXCOORD_0" : 6
                    },
                    "indices" : 7,
                    "material" : 1
                }
            ]
        },
        {
            "name" : "Cylinder.002",
            "primitives" : [
                {
                    "attributes" : {
                        "POSITION" : 8,
                        "NORMAL" : 9,
                        "TEXCOORD_0" : 10
                    },
                    "indices" : 11,
                    "material" : 0
                },
                {
                    "attributes" : {
                        "POSITION" : 12,
                        "NORMAL" : 13,
                        "TEXCOORD_0" : 14
                    },
                    "indices" : 15,
                    "material" : 2
                },
                {
                    "attributes" : {
                        "POSITION" : 16,
                        "NORMAL" : 17,
                        "TEXCOORD_0" : 18
                    },
                    "indices" : 19,
                    "material" : 3
                }
            ]
        },
        {
            "name" : "BezierCurve.001",
            "primitives" : [
                {
                    "attributes" : {
                        "POSITION" : 20,
                        "NORMAL" : 21,
                        "TEXCOORD_0" : 22
                    },
                    "indices" : 23,
                    "material" : 4
                }
            ]
        }
    ],
    "textures" : [
        {
            "sampler" : 0,
            "source" : 0
        }
    ],
    "images" : [
        {
            "bufferView" : 16,
            "mimeType" : "image/png",
            "name" : "500_F_208717619_4837MHet3MQg6g50JhoDlR8aaSd3MYiG.jpg"
        }
    ],
    "accessors" : [
        {
            "bufferView" : 0,
            "componentType" : 5126,
            "count" : 963,
            "max" : [
                159.999755859375,
                201.79539489746094,
                -0.00048828125
            ],
            "min" : [
                -160.00030517578125,
                -116.4190902709961,
                -90.0005111694336
            ],
            "type" : "VEC3"
        },
        {
            "bufferView" : 1,
            "componentType" : 5126,
            "count" : 963,
            "type" : "VEC3"
        },
        {
            "bufferView" : 2,
            "componentType" : 5126,
            "count" : 963,
            "type" : "VEC2"
        },
        {
            "bufferView" : 3,
            "componentType" : 5123,
            "count" : 3342,
            "type" : "SCALAR"
        },
        {
            "bufferView" : 4,
            "componentType" : 5126,
            "count" : 16,
            "max" : [
                108.95140075683594,
                149.4687957763672,
                -35.927738189697266
            ],
            "min" : [
                -108.95195007324219,
                110.18519592285156,
                -35.927738189697266
            ],
            "type" : "VEC3"
        },
        {
            "bufferView" : 5,
            "componentType" : 5126,
            "count" : 16,
            "type" : "VEC3"
        },
        {
            "bufferView" : 6,
            "componentType" : 5126,
            "count" : 16,
            "type" : "VEC2"
        },
        {
            "bufferView" : 7,
            "componentType" : 5123,
            "count" : 42,
            "type" : "SCALAR"
        },
        {
            "bufferView" : 8,
            "componentType" : 5126,
            "count" : 1031,
            "max" : [
                100,
                100,
                5.40766716003418
            ],
            "min" : [
                -100,
                -100,
                -288.66534423828125
            ],
            "type" : "VEC3"
        },
        {
            "bufferView" : 9,
            "componentType" : 5126,
            "count" : 1031,
            "type" : "VEC3"
        },
        {
            "bufferView" : 10,
            "componentType" : 5126,
            "count" : 1031,
            "type" : "VEC2"
        },
        {
            "bufferView" : 11,
            "componentType" : 5123,
            "count" : 4776,
            "type" : "SCALAR"
        },
        {
            "bufferView" : 12,
            "componentType" : 5126,
            "count" : 55,
            "max" : [
                42.92113494873047,
                104.99627685546875,
                -83.83660888671875
            ],
            "min" : [
                -42.64292907714844,
                88.56362915039062,
                -152.30355834960938
            ],
            "type" : "VEC3"
        },
        {
            "bufferView" : 13,
            "componentType" : 5126,
            "count" : 55,
            "type" : "VEC3"
        },
        {
            "bufferView" : 14,
            "componentType" : 5126,
            "count" : 55,
            "type" : "VEC2"
        },
        {
            "bufferView" : 15,
            "componentType" : 5123,
            "count" : 192,
            "type" : "SCALAR"
        },
        {
            "bufferView" : 17,
            "componentType" : 5126,
            "count" : 171,
            "max" : [
                19.858503341674805,
                104.09406280517578,
                -89.640625
            ],
            "min" : [
                -19.858577728271484,
                99.52115631103516,
                -114.46361541748047
            ],
            "type" : "VEC3"
        },
        {
            "bufferView" : 18,
            "componentType" : 5126,
            "count" : 171,
            "type" : "VEC3"
        },
        {
            "bufferView" : 19,
            "componentType" : 5126,
            "count" : 171,
            "type" : "VEC2"
        },
        {
            "bufferView" : 20,
            "componentType" : 5123,
            "count" : 846,
            "type" : "SCALAR"
        },
        {
            "bufferView" : 21,
            "componentType" : 5126,
            "count" : 215,
            "max" : [
                81.49041748046875,
                82.23794555664062,
                9.472204208374023
            ],
            "min" : [
                -82.0560073852539,
                -81.84031677246094,
                -78.9780502319336
            ],
            "type" : "VEC3"
        },
        {
            "bufferView" : 22,
            "componentType" : 5126,
            "count" : 215,
            "type" : "VEC3"
        },
        {
            "bufferView" : 23,
            "componentType" : 5126,
            "count" : 215,
            "type" : "VEC2"
        },
        {
            "bufferView" : 24,
            "componentType" : 5123,
            "count" : 1032,
            "type" : "SCALAR"
        },
        {
            "bufferView" : 25,
            "componentType" : 5126,
            "count" : 61,
            "max" : [
                1
            ],
            "min" : [
                0
            ],
            "type" : "SCALAR"
        },
        {
            "bufferView" : 26,
            "componentType" : 5126,
            "count" : 61,
            "type" : "VEC3"
        },
        {
            "bufferView" : 27,
            "componentType" : 5126,
            "count" : 61,
            "type" : "VEC4"
        }
    ],
    "bufferViews" : [
        {
            "buffer" : 0,
            "byteLength" : 11556,
            "byteOffset" : 0
        },
        {
            "buffer" : 0,
            "byteLength" : 11556,
            "byteOffset" : 11556
        },
        {
            "buffer" : 0,
            "byteLength" : 7704,
            "byteOffset" : 23112
        },
        {
            "buffer" : 0,
            "byteLength" : 6684,
            "byteOffset" : 30816
        },
        {
            "buffer" : 0,
            "byteLength" : 192,
            "byteOffset" : 37500
        },
        {
            "buffer" : 0,
            "byteLength" : 192,
            "byteOffset" : 37692
        },
        {
            "buffer" : 0,
            "byteLength" : 128,
            "byteOffset" : 37884
        },
        {
            "buffer" : 0,
            "byteLength" : 84,
            "byteOffset" : 38012
        },
        {
            "buffer" : 0,
            "byteLength" : 12372,
            "byteOffset" : 38096
        },
        {
            "buffer" : 0,
            "byteLength" : 12372,
            "byteOffset" : 50468
        },
        {
            "buffer" : 0,
            "byteLength" : 8248,
            "byteOffset" : 62840
        },
        {
            "buffer" : 0,
            "byteLength" : 9552,
            "byteOffset" : 71088
        },
        {
            "buffer" : 0,
            "byteLength" : 660,
            "byteOffset" : 80640
        },
        {
            "buffer" : 0,
            "byteLength" : 660,
            "byteOffset" : 81300
        },
        {
            "buffer" : 0,
            "byteLength" : 440,
            "byteOffset" : 81960
        },
        {
            "buffer" : 0,
            "byteLength" : 384,
            "byteOffset" : 82400
        },
        {
            "buffer" : 0,
            "byteLength" : 28434,
            "byteOffset" : 82784
        },
        {
            "buffer" : 0,
            "byteLength" : 2052,
            "byteOffset" : 111220
        },
        {
            "buffer" : 0,
            "byteLength" : 2052,
            "byteOffset" : 113272
        },
        {
            "buffer" : 0,
            "byteLength" : 1368,
            "byteOffset" : 115324
        },
        {
            "buffer" : 0,
            "byteLength" : 1692,
            "byteOffset" : 116692
        },
        {
            "buffer" : 0,
            "byteLength" : 2580,
            "byteOffset" : 118384
        },
        {
            "buffer" : 0,
            "byteLength" : 2580,
            "byteOffset" : 120964
        },
        {
            "buffer" : 0,
            "byteLength" : 1720,
            "byteOffset" : 123544
        },
        {
            "buffer" : 0,
            "byteLength" : 2064,
            "byteOffset" : 125264
        },
        {
            "buffer" : 0,
            "byteLength" : 244,
            "byteOffset" : 127328
        },
        {
            "buffer" : 0,
            "byteLength" : 732,
            "byteOffset" : 127572
        },
        {
            "buffer" : 0,
            "byteLength" : 976,
            "byteOffset" : 128304
        }
    ],
    "samplers" : [
        {
            "magFilter" : 9729,
            "minFilter" : 9987,
            "wrapS" : 33071,
            "wrapT" : 33071
        }
    ],
    "buffers" : [
        {
            "byteLength" : 129280,
            "uri" : "data:application/octet-stream;base64,"
        }
    ]
}
